<?xml version="1.0" standalone="no"?>
<!DOCTYPE svg PUBLIC "-//W3C//DTD SVG 20010904//EN"
 "http://www.w3.org/TR/2001/REC-SVG-20010904/DTD/svg10.dtd">
<svg version="1.0" xmlns="http://www.w3.org/2000/svg"
 width="260.000000pt" height="260.000000pt" viewBox="0 0 260.000000 260.000000"
 preserveAspectRatio="xMidYMid meet">
<metadata>
Created by potrace 1.11, written by Peter Selinger 2001-2013
</metadata>
<g transform="translate(0.000000,260.000000) scale(0.100000,-0.100000)"
fill="#000000" stroke="none">
<path d="M190 1315 l0 -705 240 0 240 0 0 255 0 255 59 0 60 0 133 -255 133
-254 273 -1 c149 0 272 2 272 4 0 3 -92 165 -205 361 -113 196 -205 358 -205
360 0 2 92 154 205 339 113 184 205 337 205 341 0 3 -113 4 -251 3 l-252 -3
-146 -257 -146 -257 -67 -1 -68 0 0 260 0 260 -240 0 -240 0 0 -705z"/>
<path d="M2061 785 c-110 -24 -197 -89 -246 -185 -24 -45 -32 -184 -15 -245
16 -58 66 -127 118 -166 69 -51 144 -72 252 -72 138 1 228 39 290 125 48 66
44 73 -72 127 l-103 48 -36 -41 c-32 -35 -42 -41 -79 -41 -35 0 -47 6 -71 33
-25 27 -29 41 -29 87 0 46 4 60 29 87 24 27 36 33 71 33 37 0 47 -6 79 -41
l36 -41 100 49 c55 28 102 52 104 54 10 9 -12 54 -45 92 -44 51 -109 86 -189
101 -74 14 -114 13 -194 -4z"/>
</g>
</svg>
